<mxfile host="app.diagrams.net" modified="2023-12-06T14:18:17.376Z" agent="Mozilla/5.0 (Macintosh; Intel Mac OS X 10_15_7) AppleWebKit/537.36 (KHTML, like Gecko) Chrome/119.0.0.0 Safari/537.36" version="22.1.6" etag="RcIm5vVfX9RTBEGl13Vo" type="github">
  <diagram name="Page-1" id="zc7a7ou7SjAZLqOkFsjS">
    <mxGraphModel>
      <root>
        <mxCell id="0" />
        <mxCell id="1" parent="0" />
      </root>
    </mxGraphModel>
  </diagram>
</mxfile>
